<mxfile host="Electron" modified="2024-02-03T16:16:16.291Z" agent="Mozilla/5.0 (Macintosh; Intel Mac OS X 10_15_7) AppleWebKit/537.36 (KHTML, like Gecko) draw.io/21.5.1 Chrome/112.0.5615.204 Electron/24.6.0 Safari/537.36" etag="68UOoFfTnDfx1pmmpOjL" version="21.5.1" type="device">
  <diagram name="Page-1" id="L9zvDovXnJXNzvDlzVAo">
    <mxGraphModel dx="954" dy="674" grid="1" gridSize="10" guides="1" tooltips="1" connect="1" arrows="1" fold="1" page="1" pageScale="1" pageWidth="827" pageHeight="1169" math="0" shadow="0">
      <root>
        <mxCell id="0" />
        <mxCell id="1" parent="0" />
        <mxCell id="gDsbvLErtuqInh4wYGDu-1" value="" style="ellipse;shape=cloud;whiteSpace=wrap;html=1;fillColor=#f5f5f5;strokeColor=#666666;fontColor=#333333;" parent="1" vertex="1">
          <mxGeometry x="110" y="10" width="620" height="420" as="geometry" />
        </mxCell>
        <mxCell id="gDsbvLErtuqInh4wYGDu-3" value="N. App&lt;br&gt;VNF 1" style="whiteSpace=wrap;html=1;aspect=fixed;fillColor=#f8cecc;strokeColor=#b85450;" parent="1" vertex="1">
          <mxGeometry x="290" y="150" width="60" height="60" as="geometry" />
        </mxCell>
        <mxCell id="gDsbvLErtuqInh4wYGDu-4" value="N. App&lt;br&gt;VNF 3" style="whiteSpace=wrap;html=1;aspect=fixed;fillColor=#f8cecc;strokeColor=#b85450;" parent="1" vertex="1">
          <mxGeometry x="450" y="150" width="60" height="60" as="geometry" />
        </mxCell>
        <mxCell id="gDsbvLErtuqInh4wYGDu-5" value="N. App&lt;br&gt;VNF 2" style="whiteSpace=wrap;html=1;aspect=fixed;fillColor=#f8cecc;strokeColor=#b85450;" parent="1" vertex="1">
          <mxGeometry x="370" y="150" width="60" height="60" as="geometry" />
        </mxCell>
        <mxCell id="gDsbvLErtuqInh4wYGDu-6" value="MiniAPI 3" style="whiteSpace=wrap;html=1;aspect=fixed;fillColor=#d5e8d4;strokeColor=#82b366;" parent="1" vertex="1">
          <mxGeometry x="290" y="260" width="60" height="60" as="geometry" />
        </mxCell>
        <mxCell id="gDsbvLErtuqInh4wYGDu-8" value="MiniAPI 1" style="rounded=0;whiteSpace=wrap;html=1;fillColor=#d5e8d4;strokeColor=#82b366;horizontal=0;rotation=90;" parent="1" vertex="1">
          <mxGeometry x="310" y="110" width="20" height="60" as="geometry" />
        </mxCell>
        <mxCell id="gDsbvLErtuqInh4wYGDu-9" value="NEF Emulator" style="whiteSpace=wrap;html=1;aspect=fixed;fillColor=#dae8fc;strokeColor=#6c8ebf;" parent="1" vertex="1">
          <mxGeometry x="370" y="260" width="60" height="60" as="geometry" />
        </mxCell>
        <mxCell id="gDsbvLErtuqInh4wYGDu-11" value="N. App&lt;br&gt;VNF N" style="whiteSpace=wrap;html=1;aspect=fixed;fillColor=#f8cecc;strokeColor=#b85450;" parent="1" vertex="1">
          <mxGeometry x="560" y="150" width="60" height="60" as="geometry" />
        </mxCell>
        <mxCell id="gDsbvLErtuqInh4wYGDu-12" value="..." style="text;html=1;align=center;verticalAlign=middle;resizable=0;points=[];autosize=1;strokeColor=none;fillColor=none;" parent="1" vertex="1">
          <mxGeometry x="520" y="165" width="30" height="30" as="geometry" />
        </mxCell>
        <mxCell id="gDsbvLErtuqInh4wYGDu-13" value="CI/CD Agent" style="ellipse;whiteSpace=wrap;html=1;aspect=fixed;fillColor=#ffe6cc;strokeColor=#d79b00;" parent="1" vertex="1">
          <mxGeometry x="560" y="260" width="60" height="60" as="geometry" />
        </mxCell>
        <mxCell id="cCD8ZTD99sYV6XkrS-Sl-1" value="MiniAPI 2" style="rounded=0;whiteSpace=wrap;html=1;fillColor=#d5e8d4;strokeColor=#82b366;horizontal=0;rotation=90;" vertex="1" parent="1">
          <mxGeometry x="390" y="110" width="20" height="60" as="geometry" />
        </mxCell>
      </root>
    </mxGraphModel>
  </diagram>
</mxfile>
